<?xml version="1.0" encoding="UTF-8"?>
<svg version="1.1" xmlns="http://www.w3.org/2000/svg" width="96" height="88">
<path d="M0 0 C1 1 1 1 1.125 4 C1 7 1 7 0 8 C2.97 8.33 5.94 8.66 9 9 C9 9.66 9 10.32 9 11 C12.63 11 16.26 11 20 11 C20 11.66 20 12.32 20 13 C20.9590625 13.37125 20.9590625 13.37125 21.9375 13.75 C24 15 24 15 24.75 17.125 C24.8325 17.74375 24.915 18.3625 25 19 C25.61875 19.12375 26.2375 19.2475 26.875 19.375 C29 20 29 20 31 22 C31.56635649 26.36988742 31.54974056 30.62929043 31 35 C28.625 38 28.625 38 26 40 C25.67 40.845625 25.34 41.69125 25 42.5625 C23.58903318 46.00173162 22.19194516 47.05094287 19 49 C15.58938527 49.57956748 12.22599679 49.5369597 8.7734375 49.49609375 C7.78880524 49.49754898 6.80417297 49.49900421 5.78970337 49.50050354 C3.71361321 49.49884695 1.63751046 49.4873126 -0.43847656 49.46655273 C-3.62097065 49.43753674 -6.80180486 49.4459612 -9.984375 49.45898438 C-12.00261228 49.45274864 -14.0208443 49.44435899 -16.0390625 49.43359375 C-17.46878891 49.43799721 -17.46878891 49.43799721 -18.92739868 49.44248962 C-20.25425186 49.42346336 -20.25425186 49.42346336 -21.60791016 49.40405273 C-22.77442612 49.39594826 -22.77442612 49.39594826 -23.96450806 49.38768005 C-26.53864064 48.89741043 -27.37847851 48.02028989 -29 46 C-29.7115625 44.700625 -29.7115625 44.700625 -30.4375 43.375 C-31.74396195 40.8373396 -31.74396195 40.8373396 -34.0625 40.375 C-34.701875 40.25125 -35.34125 40.1275 -36 40 C-38.42130331 36.36804504 -38.21022785 34.61650652 -38.125 30.3125 C-38.09792969 28.54326172 -38.09792969 28.54326172 -38.0703125 26.73828125 C-38.04710937 25.83464844 -38.02390625 24.93101563 -38 24 C-37.34 24 -36.68 24 -36 24 C-35.67 23.01 -35.34 22.02 -35 21 C-33.68 21 -32.36 21 -31 21 C-31 20.34 -31 19.68 -31 19 C-30.34 19 -29.68 19 -29 19 C-29 17.68 -29 16.36 -29 15 C-28.34 15 -27.68 15 -27 15 C-27 14.34 -27 13.68 -27 13 C-26.34 13 -25.68 13 -25 13 C-25 12.34 -25 11.68 -25 11 C-16.585 10.505 -16.585 10.505 -8 10 C-8 9.34 -8 8.68 -8 8 C-8.66 8 -9.32 8 -10 8 C-10.21917317 5.29686424 -10.32851983 3.56041618 -8.9375 1.1875 C-5.97824997 -0.62623389 -3.38419775 -0.25068132 0 0 Z " fill="#C2C2C1" transform="translate(51,19)"/>
<path d="M0 0 C1 1 1 1 1.125 4 C1 7 1 7 0 8 C2.97 8.33 5.94 8.66 9 9 C9 9.66 9 10.32 9 11 C12.63 11 16.26 11 20 11 C20 11.66 20 12.32 20 13 C20.9590625 13.37125 20.9590625 13.37125 21.9375 13.75 C24 15 24 15 24.75 17.125 C24.8325 17.74375 24.915 18.3625 25 19 C25.61875 19.12375 26.2375 19.2475 26.875 19.375 C29 20 29 20 31 22 C31.56635649 26.36988742 31.54974056 30.62929043 31 35 C28.625 38 28.625 38 26 40 C25.67 40.845625 25.34 41.69125 25 42.5625 C23.58903318 46.00173162 22.19194516 47.05094287 19 49 C15.58938527 49.57956748 12.22599679 49.5369597 8.7734375 49.49609375 C7.78880524 49.49754898 6.80417297 49.49900421 5.78970337 49.50050354 C3.71361321 49.49884695 1.63751046 49.4873126 -0.43847656 49.46655273 C-3.62097065 49.43753674 -6.80180486 49.4459612 -9.984375 49.45898438 C-12.00261228 49.45274864 -14.0208443 49.44435899 -16.0390625 49.43359375 C-17.46878891 49.43799721 -17.46878891 49.43799721 -18.92739868 49.44248962 C-20.25425186 49.42346336 -20.25425186 49.42346336 -21.60791016 49.40405273 C-22.77442612 49.39594826 -22.77442612 49.39594826 -23.96450806 49.38768005 C-26.53864064 48.89741043 -27.37847851 48.02028989 -29 46 C-29.7115625 44.700625 -29.7115625 44.700625 -30.4375 43.375 C-31.74396195 40.8373396 -31.74396195 40.8373396 -34.0625 40.375 C-34.701875 40.25125 -35.34125 40.1275 -36 40 C-38.42130331 36.36804504 -38.21022785 34.61650652 -38.125 30.3125 C-38.09792969 28.54326172 -38.09792969 28.54326172 -38.0703125 26.73828125 C-38.04710937 25.83464844 -38.02390625 24.93101563 -38 24 C-37.34 24 -36.68 24 -36 24 C-35.67 23.01 -35.34 22.02 -35 21 C-33.68 21 -32.36 21 -31 21 C-31 20.34 -31 19.68 -31 19 C-30.34 19 -29.68 19 -29 19 C-29 17.68 -29 16.36 -29 15 C-28.34 15 -27.68 15 -27 15 C-27 14.34 -27 13.68 -27 13 C-26.34 13 -25.68 13 -25 13 C-25 12.34 -25 11.68 -25 11 C-16.585 10.505 -16.585 10.505 -8 10 C-8 9.34 -8 8.68 -8 8 C-8.66 8 -9.32 8 -10 8 C-10.21917317 5.29686424 -10.32851983 3.56041618 -8.9375 1.1875 C-5.97824997 -0.62623389 -3.38419775 -0.25068132 0 0 Z M-2 12 C-2 12.66 -2 13.32 -2 14 C-7.94 14 -13.88 14 -20 14 C-20 14.66 -20 15.32 -20 16 C-20.66 16 -21.32 16 -22 16 C-22 19.63 -22 23.26 -22 27 C-22.66 27 -23.32 27 -24 27 C-24 27.66 -24 28.32 -24 29 C-23.34 29 -22.68 29 -22 29 C-22 32.63 -22 36.26 -22 40 C-21.34 40 -20.68 40 -20 40 C-20 40.66 -20 41.32 -20 42 C-18.35 42 -16.7 42 -15 42 C-15 41.01 -15 40.02 -15 39 C-12.36 39 -9.72 39 -7 39 C-7 39.99 -7 40.98 -7 42 C-8.98 42 -10.96 42 -13 42 C-13 42.66 -13 43.32 -13 44 C-15.97 44 -18.94 44 -22 44 C-22 43.34 -22 42.68 -22 42 C-22.66 42 -23.32 42 -24 42 C-24 38.37 -24 34.74 -24 31 C-24.66 31 -25.32 31 -26 31 C-26 29.02 -26 27.04 -26 25 C-25.34 25 -24.68 25 -24 25 C-24 22.03 -24 19.06 -24 16 C-24.66 16 -25.32 16 -26 16 C-26 17.65 -26 19.3 -26 21 C-26.66 21 -27.32 21 -28 21 C-28 27.93 -28 34.86 -28 42 C-27.34 42 -26.68 42 -26 42 C-26 42.66 -26 43.32 -26 44 C-25.34 44 -24.68 44 -24 44 C-24 44.66 -24 45.32 -24 46 C-10.47 46 3.06 46 17 46 C17 45.34 17 44.68 17 44 C17.66 44 18.32 44 19 44 C19 43.34 19 42.68 19 42 C19.66 42 20.32 42 21 42 C21 34.41 21 26.82 21 19 C20.34 19 19.68 19 19 19 C18.505 18.01 18.505 18.01 18 17 C18 23.6 18 30.2 18 37 C17.01 37 16.02 37 15 37 C15 38.65 15 40.3 15 42 C13.68 42 12.36 42 11 42 C11 41.34 11 40.68 11 40 C11.66 40 12.32 40 13 40 C13 38.35 13 36.7 13 35 C13.66 35 14.32 35 15 35 C15 29.39 15 23.78 15 18 C14.34 18 13.68 18 13 18 C13 16.68 13 15.36 13 14 C10.69 14 8.38 14 6 14 C6 13.34 6 12.68 6 12 C3.36 12 0.72 12 -2 12 Z " fill="#585858" transform="translate(51,19)"/>
<path d="M0 0 C0.66 0 1.32 0 2 0 C2 2.97 2 5.94 2 9 C1.34 9 0.68 9 0 9 C0 10.98 0 12.96 0 15 C0.66 15 1.32 15 2 15 C2 18.63 2 22.26 2 26 C2.66 26 3.32 26 4 26 C4 26.66 4 27.32 4 28 C6.97 28 9.94 28 13 28 C13 27.34 13 26.68 13 26 C14.98 26 16.96 26 19 26 C19 26.66 19 27.32 19 28 C24.94 28 30.88 28 37 28 C37 27.34 37 26.68 37 26 C38.32 26 39.64 26 41 26 C41 24.35 41 22.7 41 21 C41.99 21 42.98 21 44 21 C44 14.4 44 7.8 44 1 C44.495 1.99 44.495 1.99 45 3 C45.66 3 46.32 3 47 3 C47 10.59 47 18.18 47 26 C46.34 26 45.68 26 45 26 C45 26.66 45 27.32 45 28 C44.34 28 43.68 28 43 28 C43 28.66 43 29.32 43 30 C29.47 30 15.94 30 2 30 C2 29.34 2 28.68 2 28 C1.34 28 0.68 28 0 28 C0 27.34 0 26.68 0 26 C-0.66 26 -1.32 26 -2 26 C-2 19.07 -2 12.14 -2 5 C-1.34 5 -0.68 5 0 5 C0 3.35 0 1.7 0 0 Z " fill="#CBCBCA" transform="translate(25,35)"/>
<path d="M0 0 C1 1 1 1 1.0625 4.0625 C1.041875 5.031875 1.02125 6.00125 1 7 C0.01 7.33 -0.98 7.66 -2 8 C-2 8.66 -2 9.32 -2 10 C0.64 10 3.28 10 6 10 C6 10.33 6 10.66 6 11 C3.36 11 0.72 11 -2 11 C-2 11.99 -2 12.98 -2 14 C-7.94 14 -13.88 14 -20 14 C-20 14.66 -20 15.32 -20 16 C-20.66 16 -21.32 16 -22 16 C-22 19.63 -22 23.26 -22 27 C-22.66 27 -23.32 27 -24 27 C-24 27.66 -24 28.32 -24 29 C-23.34 29 -22.68 29 -22 29 C-22 32.63 -22 36.26 -22 40 C-21.34 40 -20.68 40 -20 40 C-20 40.66 -20 41.32 -20 42 C-18.35 42 -16.7 42 -15 42 C-15 41.01 -15 40.02 -15 39 C-12.36 39 -9.72 39 -7 39 C-7 39.99 -7 40.98 -7 42 C-8.98 42 -10.96 42 -13 42 C-13 42.66 -13 43.32 -13 44 C-15.97 44 -18.94 44 -22 44 C-22 43.34 -22 42.68 -22 42 C-22.66 42 -23.32 42 -24 42 C-24 38.37 -24 34.74 -24 31 C-24.66 31 -25.32 31 -26 31 C-26 29.02 -26 27.04 -26 25 C-25.34 25 -24.68 25 -24 25 C-24 22.03 -24 19.06 -24 16 C-24.66 16 -25.32 16 -26 16 C-26 15.34 -26 14.68 -26 14 C-25.34 14 -24.68 14 -24 14 C-24 13.34 -24 12.68 -24 12 C-17.4 12 -10.8 12 -4 12 C-4 11.34 -4 10.68 -4 10 C-5.32 10 -6.64 10 -8 10 C-8 9.34 -8 8.68 -8 8 C-8.66 8 -9.32 8 -10 8 C-10.21917317 5.29686424 -10.32851983 3.56041618 -8.9375 1.1875 C-5.97824997 -0.62623389 -3.38419775 -0.25068132 0 0 Z " fill="#0D0D0D" transform="translate(51,19)"/>
<path d="M0 0 C0 0.66 0 1.32 0 2 C-6.6 2 -13.2 2 -20 2 C-20 2.66 -20 3.32 -20 4 C-20.66 4 -21.32 4 -22 4 C-22 6.31 -22 8.62 -22 11 C-22.66 11 -23.32 11 -24 11 C-24 19.25 -24 27.5 -24 36 C-25.32 34.35 -26.64 32.7 -28 31 C-30.06874034 30.3574765 -30.06874034 30.3574765 -32 30 C-34.42130331 26.36804504 -34.21022785 24.61650652 -34.125 20.3125 C-34.09792969 18.54326172 -34.09792969 18.54326172 -34.0703125 16.73828125 C-34.04710937 15.83464844 -34.02390625 14.93101563 -34 14 C-33.34 14 -32.68 14 -32 14 C-31.67 13.01 -31.34 12.02 -31 11 C-29.68 11 -28.36 11 -27 11 C-27 10.34 -27 9.68 -27 9 C-26.34 9 -25.68 9 -25 9 C-25 7.68 -25 6.36 -25 5 C-24.34 5 -23.68 5 -23 5 C-23 4.34 -23 3.68 -23 3 C-22.34 3 -21.68 3 -21 3 C-21 2.34 -21 1.68 -21 1 C-17.87504511 0.83248032 -14.75002908 0.66612942 -11.625 0.5 C-10.73554687 0.45230469 -9.84609375 0.40460937 -8.9296875 0.35546875 C-7.65351562 0.28779297 -7.65351562 0.28779297 -6.3515625 0.21875 C-5.56604004 0.17685547 -4.78051758 0.13496094 -3.97119141 0.09179688 C-2.64854076 0.03020205 -1.32408408 0 0 0 Z " fill="#A5A5A5" transform="translate(47,29)"/>
<path d="M0 0 C3.63 0.33 7.26 0.66 11 1 C11 1.66 11 2.32 11 3 C14.63 3 18.26 3 22 3 C22 3.66 22 4.32 22 5 C23.32 5.66 24.64 6.32 26 7 C25.01 7.66 24.02 8.32 23 9 C23.33 9.33 23.66 9.66 24 10 C24.08726223 11.78071246 24.10699041 13.5648314 24.09765625 15.34765625 C24.09443359 16.42724609 24.09121094 17.50683594 24.08789062 18.61914062 C24.07951172 19.75544922 24.07113281 20.89175781 24.0625 22.0625 C24.05798828 23.20267578 24.05347656 24.34285156 24.04882812 25.51757812 C24.03699747 28.34510351 24.0205141 31.1725264 24 34 C23.67 34 23.34 34 23 34 C23 26.41 23 18.82 23 11 C22.34 11 21.68 11 21 11 C20.67 16.94 20.34 22.88 20 29 C19.01 29 18.02 29 17 29 C17 30.65 17 32.3 17 34 C15.68 34 14.36 34 13 34 C13 33.34 13 32.68 13 32 C13.66 32 14.32 32 15 32 C15 30.35 15 28.7 15 27 C15.66 27 16.32 27 17 27 C17 21.39 17 15.78 17 10 C16.34 10 15.68 10 15 10 C15 8.68 15 7.36 15 6 C12.69 6 10.38 6 8 6 C8 5.34 8 4.68 8 4 C5.36 4 2.72 4 0 4 C0 2.68 0 1.36 0 0 Z " fill="#878787" transform="translate(49,27)"/>
<path d="M0 0 C0.66 0 1.32 0 2 0 C2 3.63 2 7.26 2 11 C1.34 11 0.68 11 0 11 C0 11.66 0 12.32 0 13 C0.66 13 1.32 13 2 13 C2 16.63 2 20.26 2 24 C2.66 24 3.32 24 4 24 C4 24.66 4 25.32 4 26 C5.65 26 7.3 26 9 26 C9 25.01 9 24.02 9 23 C11.64 23 14.28 23 17 23 C17 23.99 17 24.98 17 26 C15.02 26 13.04 26 11 26 C11 26.66 11 27.32 11 28 C8.03 28 5.06 28 2 28 C2 27.34 2 26.68 2 26 C1.34 26 0.68 26 0 26 C0 22.37 0 18.74 0 15 C-0.66 15 -1.32 15 -2 15 C-2 13.02 -2 11.04 -2 9 C-1.34 9 -0.68 9 0 9 C0 6.03 0 3.06 0 0 Z " fill="#151515" transform="translate(27,35)"/>
<path d="M0 0 C1.57043101 0.01330874 3.14079971 0.03717648 4.7109375 0.0703125 C5.51273438 0.07933594 6.31453125 0.08835938 7.140625 0.09765625 C9.12252273 0.12125027 11.10426731 0.15712185 13.0859375 0.1953125 C13.0859375 0.5253125 13.0859375 0.8553125 13.0859375 1.1953125 C10.1159375 1.1953125 7.1459375 1.1953125 4.0859375 1.1953125 C4.0859375 2.5153125 4.0859375 3.8353125 4.0859375 5.1953125 C3.4259375 5.1953125 2.7659375 5.1953125 2.0859375 5.1953125 C2.0859375 6.1853125 2.0859375 7.1753125 2.0859375 8.1953125 C1.4259375 8.1953125 0.7659375 8.1953125 0.0859375 8.1953125 C0.0859375 8.8553125 0.0859375 9.5153125 0.0859375 10.1953125 C-0.5740625 10.1953125 -1.2340625 10.1953125 -1.9140625 10.1953125 C-1.9140625 10.8553125 -1.9140625 11.5153125 -1.9140625 12.1953125 C-3.2340625 12.1953125 -4.5540625 12.1953125 -5.9140625 12.1953125 C-5.96801728 10.57067408 -6.00683445 8.94552709 -6.0390625 7.3203125 C-6.06226562 6.41539063 -6.08546875 5.51046875 -6.109375 4.578125 C-5.75371055 0.23901869 -4.1420122 0.20668724 0 0 Z " fill="#DADAD9" transform="translate(35.9140625,33.8046875)"/>
<path d="M0 0 C0.33 0.99 0.66 1.98 1 3 C2.94603274 3.59070014 2.94603274 3.59070014 5 4 C7 6 7 6 7.1953125 9.0390625 C7.17210938 10.22242188 7.14890625 11.40578125 7.125 12.625 C7.10695313 13.81351563 7.08890625 15.00203125 7.0703125 16.2265625 C7.04710938 17.14179687 7.02390625 18.05703125 7 19 C4.69 19 2.38 19 0 19 C0 14.71 0 10.42 0 6 C0.99 6 1.98 6 3 6 C3.33 5.67 3.66 5.34 4 5 C2.68 5 1.36 5 0 5 C0 3.35 0 1.7 0 0 Z " fill="#717170" transform="translate(75,35)"/>
<path d="M0 0 C3.3 0 6.6 0 10 0 C10 0.66 10 1.32 10 2 C9.34 2 8.68 2 8 2 C8 2.99 8 3.98 8 5 C8.66 5 9.32 5 10 5 C10 11.6 10 18.2 10 25 C9.34 25 8.68 25 8 25 C8 26.65 8 28.3 8 30 C6.68 30 5.36 30 4 30 C4 29.34 4 28.68 4 28 C4.66 28 5.32 28 6 28 C6 26.35 6 24.7 6 23 C6.66 23 7.32 23 8 23 C8 17.39 8 11.78 8 6 C7.34 6 6.68 6 6 6 C6 4.68 6 3.36 6 2 C4.02 2 2.04 2 0 2 C0 1.34 0 0.68 0 0 Z " fill="#191919" transform="translate(58,31)"/>
<path d="M0 0 C0 6.93 0 13.86 0 21 C-0.33 20.01 -0.66 19.02 -1 18 C-2.32 18 -3.64 18 -5 18 C-4.67 17.01 -4.34 16.02 -4 15 C-3.34 15.33 -2.68 15.66 -2 16 C-2 12.04 -2 8.08 -2 4 C-2.66 4 -3.32 4 -4 4 C-4 4.66 -4 5.32 -4 6 C-4.66 6 -5.32 6 -6 6 C-6 8.64 -6 11.28 -6 14 C-6.33 14 -6.66 14 -7 14 C-7.02698189 12.37509046 -7.04638757 10.75005367 -7.0625 9.125 C-7.07410156 8.22007813 -7.08570313 7.31515625 -7.09765625 6.3828125 C-7 4 -7 4 -6 2 C-1.55555556 0 -1.55555556 0 0 0 Z " fill="#1C1C1C" transform="translate(22,40)"/>
<path d="M0 0 C0.99 0 1.98 0 3 0 C3 0.66 3 1.32 3 2 C3.66 2 4.32 2 5 2 C5 2.66 5 3.32 5 4 C5.66 4 6.32 4 7 4 C7 11.92 7 19.84 7 28 C6.67 28 6.34 28 6 28 C6 20.41 6 12.82 6 5 C5.34 5 4.68 5 4 5 C3.67 10.94 3.34 16.88 3 23 C2.67 23 2.34 23 2 23 C2 16.4 2 9.8 2 3 C1.34 3 0.68 3 0 3 C0 2.01 0 1.02 0 0 Z " fill="#838383" transform="translate(66,33)"/>
<path d="M0 0 C1 1 1 1 1.0625 4.0625 C1.041875 5.031875 1.02125 6.00125 1 7 C0.67 7 0.34 7 0 7 C0 5.35 0 3.7 0 2 C-0.99 2.495 -0.99 2.495 -2 3 C-2 3.99 -2 4.98 -2 6 C-3.65 6 -5.3 6 -7 6 C-6.67 7.32 -6.34 8.64 -6 10 C-6.66 10 -7.32 10 -8 10 C-8 9.34 -8 8.68 -8 8 C-8.66 8 -9.32 8 -10 8 C-10.21917317 5.29686424 -10.32851983 3.56041618 -8.9375 1.1875 C-5.97824997 -0.62623389 -3.38419775 -0.25068132 0 0 Z " fill="#B3B3B3" transform="translate(51,19)"/>
<path d="M0 0 C0.33 0.66 0.66 1.32 1 2 C1.66 2 2.32 2 3 2 C3 9.26 3 16.52 3 24 C-0.375 19.5 -0.375 19.5 -0.29296875 15.234375 C-0.28330078 14.34492187 -0.27363281 13.45546875 -0.26367188 12.5390625 C-0.23853516 11.61867188 -0.21339844 10.69828125 -0.1875 9.75 C-0.16719727 8.34621094 -0.16719727 8.34621094 -0.14648438 6.9140625 C-0.11119954 4.60878673 -0.06190281 2.3046894 0 0 Z " fill="#E1E1E0" transform="translate(69,36)"/>
<path d="M0 0 C0.99 0 1.98 0 3 0 C3 1.65 3 3.3 3 5 C4.32 5 5.64 5 7 5 C7.33 5.99 7.66 6.98 8 8 C7.34 8 6.68 8 6 8 C6 7.34 6 6.68 6 6 C5.01 6 4.02 6 3 6 C3 10.29 3 14.58 3 19 C2.34 19 1.68 19 1 19 C1 13.39 1 7.78 1 2 C0.34 1.67 -0.32 1.34 -1 1 C-0.67 0.67 -0.34 0.34 0 0 Z " fill="#181818" transform="translate(72,35)"/>
<path d="M0 0 C-1.15173355 2.46800047 -2.04783565 4.04783565 -4 6 C-4.309375 6.845625 -4.61875 7.69125 -4.9375 8.5625 C-5.288125 9.366875 -5.63875 10.17125 -6 11 C-6.99 11.33 -7.98 11.66 -9 12 C-9 11.34 -9 10.68 -9 10 C-8.34 10 -7.68 10 -7 10 C-7.33 7.03 -7.66 4.06 -8 1 C-4 0 -4 0 0 0 Z " fill="#636363" transform="translate(81,53)"/>
<path d="M0 0 C0.66 0 1.32 0 2 0 C2 3.96 2 7.92 2 12 C1.34 12 0.68 12 0 12 C0 11.34 0 10.68 0 10 C-0.66 10 -1.32 10 -2 10 C-2 7.36 -2 4.72 -2 2 C-1.34 2 -0.68 2 0 2 C0 1.34 0 0.68 0 0 Z " fill="#D3D3D1" transform="translate(18,44)"/>
<path d="M0 0 C0.66 0 1.32 0 2 0 C2 0.66 2 1.32 2 2 C2.66 2 3.32 2 4 2 C4 4.64 4 7.28 4 10 C3.34 10 2.68 10 2 10 C2 10.66 2 11.32 2 12 C1.34 12 0.68 12 0 12 C0 8.04 0 4.08 0 0 Z " fill="#D5D5D4" transform="translate(75,42)"/>
<path d="M0 0 C2.64 0 5.28 0 8 0 C8 0.99 8 1.98 8 3 C6.02 3 4.04 3 2 3 C2 3.66 2 4.32 2 5 C-0.97 5 -3.94 5 -7 5 C-6.67 4.34 -6.34 3.68 -6 3 C-3.69 3.33 -1.38 3.66 1 4 C0.67 2.68 0.34 1.36 0 0 Z " fill="#343434" transform="translate(36,58)"/>
<path d="M0 0 C0 0.99 0 1.98 0 3 C-0.66 3 -1.32 3 -2 3 C-2 3.99 -2 4.98 -2 6 C-2.66 6 -3.32 6 -4 6 C-4 6.66 -4 7.32 -4 8 C-4.66 8 -5.32 8 -6 8 C-6 8.66 -6 9.32 -6 10 C-6.66 10 -7.32 10 -8 10 C-8 8.68 -8 7.36 -8 6 C-7.34 6 -6.68 6 -6 6 C-5.71125 5.195625 -5.4225 4.39125 -5.125 3.5625 C-3.81204892 0.57188921 -3.2474503 0 0 0 Z " fill="#F2F2EC" transform="translate(40,36)"/>
<path d="M0 0 C0.33 0 0.66 0 1 0 C1 3.3 1 6.6 1 10 C1.99 10.33 2.98 10.66 4 11 C3.67 11.99 3.34 12.98 3 14 C4.32 14 5.64 14 7 14 C6.67 14.99 6.34 15.98 6 17 C1.125 15.25 1.125 15.25 0 13 C-0.07092842 10.7927077 -0.08415025 8.58332548 -0.0625 6.375 C-0.05347656 5.18648437 -0.04445313 3.99796875 -0.03515625 2.7734375 C-0.02355469 1.85820313 -0.01195312 0.94296875 0 0 Z " fill="#535353" transform="translate(14,44)"/>
<path d="M0 0 C0.99 0 1.98 0 3 0 C2.67 1.98 2.34 3.96 2 6 C1.34 6 0.68 6 0 6 C0 6.66 0 7.32 0 8 C-0.66 8 -1.32 8 -2 8 C-2 8.66 -2 9.32 -2 10 C-2.66 10 -3.32 10 -4 10 C-4 8.68 -4 7.36 -4 6 C-3.34 6 -2.68 6 -2 6 C-2 5.34 -2 4.68 -2 4 C-1.34 4 -0.68 4 0 4 C0 2.68 0 1.36 0 0 Z " fill="#F5F5EE" transform="translate(62,46)"/>
<path d="M0 0 C0.66 0 1.32 0 2 0 C2 2.64 2 5.28 2 8 C0.68 8 -0.64 8 -2 8 C-2 6.02 -2 4.04 -2 2 C-1.34 2 -0.68 2 0 2 C0 1.34 0 0.68 0 0 Z " fill="#0A0A0A" transform="translate(40,44)"/>
<path d="M0 0 C0.66 0 1.32 0 2 0 C2 2.64 2 5.28 2 8 C0.68 8 -0.64 8 -2 8 C-2 6.02 -2 4.04 -2 2 C-1.34 2 -0.68 2 0 2 C0 1.34 0 0.68 0 0 Z " fill="#0B0B0B" transform="translate(53,44)"/>
<path d="M0 0 C0.66 0 1.32 0 2 0 C2 2.97 2 5.94 2 9 C1.34 9 0.68 9 0 9 C0 10.98 0 12.96 0 15 C-0.33 15 -0.66 15 -1 15 C-1.18451025 4.44191344 -1.18451025 4.44191344 0 0 Z " fill="#B7B7B6" transform="translate(25,35)"/>
<path d="M0 0 C3.63 0.33 7.26 0.66 11 1 C11 1.99 11 2.98 11 4 C10.34 4 9.68 4 9 4 C8.67 4.66 8.34 5.32 8 6 C8 5.34 8 4.68 8 4 C5.36 4 2.72 4 0 4 C0 2.68 0 1.36 0 0 Z " fill="#666666" transform="translate(49,27)"/>
<path d="M0 0 C3.3 0 6.6 0 10 0 C10 0.66 10 1.32 10 2 C9.34 2 8.68 2 8 2 C7.34 3.32 6.68 4.64 6 6 C6 4.68 6 3.36 6 2 C4.02 2 2.04 2 0 2 C0 1.34 0 0.68 0 0 Z " fill="#0F0F0F" transform="translate(58,31)"/>
<path d="M0 0 C1.32 0 2.64 0 4 0 C3.3125 1.9375 3.3125 1.9375 2 4 C-0.625 4.75 -0.625 4.75 -3 5 C-3 4.01 -3 3.02 -3 2 C-2.01 2 -1.02 2 0 2 C0 1.34 0 0.68 0 0 Z " fill="#2E2E2E" transform="translate(77,53)"/>
<path d="M0 0 C1.98 0 3.96 0 6 0 C6 1.98 6 3.96 6 6 C5.34 6 4.68 6 4 6 C3.67 6.66 3.34 7.32 3 8 C2.67 6.68 2.34 5.36 2 4 C2.66 4 3.32 4 4 4 C4 3.01 4 2.02 4 1 C2.68 0.67 1.36 0.34 0 0 Z " fill="#212121" transform="translate(45,21)"/>
<path d="M0 0 C0.33 0 0.66 0 1 0 C1 4.29 1 8.58 1 13 C0.34 13 -0.32 13 -1 13 C-1 12.34 -1 11.68 -1 11 C-1.66 10.67 -2.32 10.34 -3 10 C-2.34 9.34 -1.68 8.68 -1 8 C-0.54188325 6.02764667 -0.54188325 6.02764667 -0.375 3.875 C-0.25125 2.59625 -0.1275 1.3175 0 0 Z " fill="#BCBCBB" transform="translate(26,50)"/>
<path d="M0 0 C0.66 0.33 1.32 0.66 2 1 C2 2.98 2 4.96 2 7 C0.68 7 -0.64 7 -2 7 C-2 6.34 -2 5.68 -2 5 C-1.34 5 -0.68 5 0 5 C0 3.35 0 1.7 0 0 Z " fill="#222221" transform="translate(64,54)"/>
</svg>
