<?xml version="1.0" encoding="UTF-8"?>
<svg version="1.1" xmlns="http://www.w3.org/2000/svg" width="252" height="92">
<path d="M0 0 C0.67691895 0.25507324 1.35383789 0.51014648 2.05126953 0.77294922 C13.81600233 5.26357162 23.11264269 10.31468519 29.125 21.921875 C31.95811239 28.65051693 32.28572791 36.27138906 29.90625 43.171875 C28.43582508 46.25351021 26.82609783 49.11582759 25 52 C24.51660156 52.76570313 24.03320312 53.53140625 23.53515625 54.3203125 C19.28147463 60.01353523 13.77666192 62.17060716 7.3046875 64.578125 C3.97025339 65.81073003 3.97025339 65.81073003 1.64453125 68.0703125 C-2.09657695 70.80016103 -5.66377752 71.06976734 -10.1875 71.625 C-11.80629042 71.84414326 -13.42478193 72.06550577 -15.04296875 72.2890625 C-16.20851036 72.44425606 -16.20851036 72.44425606 -17.39759827 72.60258484 C-19.77706649 72.96595562 -22.07052177 73.46339528 -24.41381836 74.00708008 C-31.02137983 75.34116269 -37.61398588 75.43968332 -44.3359375 75.59765625 C-45.7053971 75.63640436 -47.07483274 75.67600785 -48.44424438 75.71641541 C-52.02652143 75.82028426 -55.60897958 75.91458055 -59.19158936 76.00616455 C-64.91579383 76.15385808 -70.63961667 76.31527054 -76.36339188 76.47863579 C-78.3393682 76.53351569 -80.31548208 76.58337126 -82.29159546 76.6330719 C-89.04289419 76.81728781 -95.74184697 77.15525952 -102.46757507 77.77775574 C-130.65987118 80.25189663 -172.34450391 78.16045046 -196.5 61.9375 C-199.64294792 58.24453619 -200.87826545 54.441024 -202.578125 49.9375 C-204.44532009 46.07999805 -206.87799563 44.10193751 -210.19921875 41.5 C-213.9824104 38.34870804 -215.07850689 34.43042345 -215.875 29.75 C-216.40440313 23.35394584 -214.58536572 17.6422762 -211.3125 12.1875 C-203.45807684 4.75764025 -195.44303742 2.80564706 -184.828125 2.5390625 C-183.42820312 2.27222656 -183.42820312 2.27222656 -182 2 C-180.94156364 0.12308987 -180.94156364 0.12308987 -180 -2 C-175.53507646 -4.70853605 -171.32147376 -5.65855309 -166.19824219 -6.16601562 C-165.45689404 -6.24564796 -164.71554588 -6.3252803 -163.95173264 -6.40732574 C-156.66572062 -7.1335544 -149.39827714 -7.30965384 -142.08063507 -7.33552551 C-139.74840892 -7.34404106 -137.41653434 -7.36473429 -135.08441162 -7.38806152 C-129.30360566 -7.44357013 -123.52271389 -7.47953309 -117.74176025 -7.51568604 C-112.8213107 -7.5472051 -107.90103955 -7.58656881 -102.98073578 -7.63594055 C-100.70939991 -7.65565311 -98.43821149 -7.6642492 -96.16680908 -7.67224121 C-88.59658251 -7.72852078 -81.28651998 -8.19375042 -73.81376648 -9.53834534 C-50.07375047 -13.43336974 -22.26329938 -8.63471611 0 0 Z " fill="#39B5FD" transform="translate(218,12)"/>
<path d="M0 0 C2.97 0 5.94 0 9 0 C9 0.66 9 1.32 9 2 C11.31 2 13.62 2 16 2 C16 3.65 16 5.3 16 7 C16.66 7 17.32 7 18 7 C18 12.94 18 18.88 18 25 C17.34 25 16.68 25 16 25 C16 26.65 16 28.3 16 30 C15.34 30 14.68 30 14 30 C14 30.66 14 31.32 14 32 C15.32 32 16.64 32 18 32 C18 30.35 18 28.7 18 27 C18.66 27 19.32 27 20 27 C20 19.74 20 12.48 20 5 C19.34 5 18.68 5 18 5 C18 4.01 18 3.02 18 2 C18.99 2 19.98 2 21 2 C21 2.66 21 3.32 21 4 C21.66 4 22.32 4 23 4 C23 4.99 23 5.98 23 7 C23.66 7 24.32 7 25 7 C25 15.25 25 23.5 25 32 C24.34 32 23.68 32 23 32 C23 32.66 23 33.32 23 34 C22.01 34 21.02 34 20 34 C20 34.66 20 35.32 20 36 C5.81 36 -8.38 36 -23 36 C-23 35.67 -23 35.34 -23 35 C-11.12 34.67 0.76 34.34 13 34 C13 33.34 13 32.68 13 32 C7.06 32 1.12 32 -5 32 C-5 31.01 -5 30.02 -5 29 C-7.97 29 -10.94 29 -14 29 C-14 29.99 -14 30.98 -14 32 C-15.65 32 -17.3 32 -19 32 C-19 31.34 -19 30.68 -19 30 C-19.66 30 -20.32 30 -21 30 C-21 26.04 -21 22.08 -21 18 C-21.66 18 -22.32 18 -23 18 C-23 17.34 -23 16.68 -23 16 C-22.34 16 -21.68 16 -21 16 C-21 12.04 -21 8.08 -21 4 C-20.34 4 -19.68 4 -19 4 C-19 3.34 -19 2.68 -19 2 C-12.73 2 -6.46 2 0 2 C0 1.34 0 0.68 0 0 Z " fill="#CCCCCB" transform="translate(71,32)"/>
<path d="M0 0 C2.31 0 4.62 0 7 0 C7 1.98 7 3.96 7 6 C6.34 6 5.68 6 5 6 C5 6.99 5 7.98 5 9 C8.63 9 12.26 9 16 9 C16 9.66 16 10.32 16 11 C19.96 11 23.92 11 28 11 C28 11.66 28 12.32 28 13 C28.66 13 29.32 13 30 13 C30 13.66 30 14.32 30 15 C30.66 15 31.32 15 32 15 C32 16.65 32 18.3 32 20 C33.65 20 35.3 20 37 20 C37 20.66 37 21.32 37 22 C37.66 22 38.32 22 39 22 C39 26.62 39 31.24 39 36 C38.34 36 37.68 36 37 36 C37 36.66 37 37.32 37 38 C36.34 38 35.68 38 35 38 C35 38.66 35 39.32 35 40 C34.01 40 33.02 40 32 40 C32 41.65 32 43.3 32 45 C31.34 45 30.68 45 30 45 C30 45.66 30 46.32 30 47 C29.34 47 28.68 47 28 47 C28 47.99 28 48.98 28 50 C21.21902652 50.05064156 14.43810167 50.08570883 7.65698242 50.10986328 C5.3493467 50.11993107 3.04172375 50.13358623 0.73413086 50.15087891 C-2.57962191 50.17509287 -5.89320626 50.18647526 -9.20703125 50.1953125 C-10.2414888 50.20563507 -11.27594635 50.21595764 -12.3417511 50.22659302 C-13.3025206 50.22674408 -14.2632901 50.22689514 -15.25317383 50.22705078 C-16.09922684 50.231492 -16.94527985 50.23593323 -17.81697083 50.24050903 C-20 50 -20 50 -23 48 C-23.1875 45.375 -23.1875 45.375 -23 43 C-23.66 43 -24.32 43 -25 43 C-25 42.34 -25 41.68 -25 41 C-26.65 41 -28.3 41 -30 41 C-30 40.01 -30 39.02 -30 38 C-30.66 38 -31.32 38 -32 38 C-32 33.38 -32 28.76 -32 24 C-31.34 24 -30.68 24 -30 24 C-30 23.34 -30 22.68 -30 22 C-28.35 22 -26.7 22 -25 22 C-25 21.34 -25 20.68 -25 20 C-24.34 20 -23.68 20 -23 20 C-23 18.35 -23 16.7 -23 15 C-22.34 15 -21.68 15 -21 15 C-21 14.34 -21 13.68 -21 13 C-20.01 13 -19.02 13 -18 13 C-18 12.34 -18 11.68 -18 11 C-11.4 11 -4.8 11 2 11 C2 10.34 2 9.68 2 9 C1.34 9 0.68 9 0 9 C0 8.34 0 7.68 0 7 C-0.66 7 -1.32 7 -2 7 C-2 5.35 -2 3.7 -2 2 C-1.34 2 -0.68 2 0 2 C0 1.34 0 0.68 0 0 Z M5 11 C5 11.66 5 12.32 5 13 C-1.27 13 -7.54 13 -14 13 C-14 13.66 -14 14.32 -14 15 C-14.66 15 -15.32 15 -16 15 C-16 18.96 -16 22.92 -16 27 C-16.66 27 -17.32 27 -18 27 C-18 27.66 -18 28.32 -18 29 C-17.34 29 -16.68 29 -16 29 C-16 32.96 -16 36.92 -16 41 C-15.34 41 -14.68 41 -14 41 C-14 41.66 -14 42.32 -14 43 C-12.35 43 -10.7 43 -9 43 C-9 42.01 -9 41.02 -9 40 C-6.03 40 -3.06 40 0 40 C0 40.99 0 41.98 0 43 C5.94 43 11.88 43 18 43 C18 43.66 18 44.32 18 45 C6.12 45.33 -5.76 45.66 -18 46 C-18 46.33 -18 46.66 -18 47 C-3.81 47 10.38 47 25 47 C25 46.34 25 45.68 25 45 C25.99 45 26.98 45 28 45 C28 44.34 28 43.68 28 43 C28.66 43 29.32 43 30 43 C30 34.75 30 26.5 30 18 C29.34 18 28.68 18 28 18 C28 17.01 28 16.02 28 15 C27.34 15 26.68 15 26 15 C26 14.34 26 13.68 26 13 C25.01 13 24.02 13 23 13 C23 13.99 23 14.98 23 16 C23.66 16 24.32 16 25 16 C25 23.26 25 30.52 25 38 C24.34 38 23.68 38 23 38 C23 39.65 23 41.3 23 43 C21.68 43 20.36 43 19 43 C19 42.34 19 41.68 19 41 C19.66 41 20.32 41 21 41 C21 39.35 21 37.7 21 36 C21.66 36 22.32 36 23 36 C23 30.06 23 24.12 23 18 C22.34 18 21.68 18 21 18 C21 16.35 21 14.7 21 13 C18.69 13 16.38 13 14 13 C14 12.34 14 11.68 14 11 C11.03 11 8.06 11 5 11 Z " fill="#060A0C" transform="translate(66,21)"/>
<path d="M0 0 C3.125 1.125 3.125 1.125 5 3 C5.8125 6.1875 5.8125 6.1875 6 9 C3.625 9.125 3.625 9.125 1 9 C0.34 8.34 -0.32 7.68 -1 7 C-3.20250992 6.53993654 -3.20250992 6.53993654 -5.625 6.375 C-6.44226563 6.30023438 -7.25953125 6.22546875 -8.1015625 6.1484375 C-8.72804687 6.09945312 -9.35453125 6.05046875 -10 6 C-9.38449619 8.01142372 -9.38449619 8.01142372 -8 10 C-5.47012405 11.02636029 -5.47012405 11.02636029 -2.5625 11.5625 C3.80425825 12.92741089 3.80425825 12.92741089 6 16 C6.85988484 22.77159309 6.85988484 22.77159309 4.25 26.5 C-0.77661004 28.81997387 -5.57231789 29.004571 -11 28 C-13.75046954 26.23833563 -14.39373558 24.98306249 -16 22 C-16 20.68 -16 19.36 -16 18 C-14.02 18 -12.04 18 -10 18 C-9.34 19.32 -8.68 20.64 -8 22 C-5.36 22 -2.72 22 0 22 C0 20.68 0 19.36 0 18 C-0.58007812 17.97421875 -1.16015625 17.9484375 -1.7578125 17.921875 C-7.36168771 17.51499297 -10.64684174 16.59135557 -15 13 C-16.56430248 9.87139505 -16.35627284 7.44397075 -16 4 C-12.02268824 -1.34879857 -6.07225961 -0.73851806 0 0 Z " fill="#02080C" transform="translate(160,33)"/>
<path d="M0 0 C2.31 0 4.62 0 7 0 C7 1.98 7 3.96 7 6 C6.34 6 5.68 6 5 6 C5 6.99 5 7.98 5 9 C8.63 9 12.26 9 16 9 C16 9.66 16 10.32 16 11 C19.63 11 23.26 11 27 11 C26.67 11.99 26.34 12.98 26 14 C25.01 13.67 24.02 13.34 23 13 C23 13.99 23 14.98 23 16 C23.66 16 24.32 16 25 16 C25 23.26 25 30.52 25 38 C24.34 38 23.68 38 23 38 C23 39.65 23 41.3 23 43 C21.68 43 20.36 43 19 43 C19 42.34 19 41.68 19 41 C19.66 41 20.32 41 21 41 C21 39.35 21 37.7 21 36 C21.66 36 22.32 36 23 36 C23 30.06 23 24.12 23 18 C22.34 18 21.68 18 21 18 C21 16.35 21 14.7 21 13 C18.69 13 16.38 13 14 13 C14 12.34 14 11.68 14 11 C11.03 11 8.06 11 5 11 C5 11.66 5 12.32 5 13 C-1.27 13 -7.54 13 -14 13 C-14 13.66 -14 14.32 -14 15 C-14.66 15 -15.32 15 -16 15 C-16 18.96 -16 22.92 -16 27 C-16.66 27 -17.32 27 -18 27 C-18 27.66 -18 28.32 -18 29 C-17.34 29 -16.68 29 -16 29 C-16 32.96 -16 36.92 -16 41 C-15.34 41 -14.68 41 -14 41 C-14 41.66 -14 42.32 -14 43 C-12.35 43 -10.7 43 -9 43 C-9 42.01 -9 41.02 -9 40 C-6.03 40 -3.06 40 0 40 C0 40.99 0 41.98 0 43 C-2.31 43 -4.62 43 -7 43 C-7 43.66 -7 44.32 -7 45 C-9.97 45 -12.94 45 -16 45 C-16 44.34 -16 43.68 -16 43 C-16.66 43 -17.32 43 -18 43 C-18 39.04 -18 35.08 -18 31 C-18.66 31 -19.32 31 -20 31 C-20 29.02 -20 27.04 -20 25 C-19.34 25 -18.68 25 -18 25 C-18 22.03 -18 19.06 -18 16 C-18.66 16 -19.32 16 -20 16 C-20 17.32 -20 18.64 -20 20 C-20.99 20 -21.98 20 -23 20 C-23 18.35 -23 16.7 -23 15 C-22.34 15 -21.68 15 -21 15 C-21 14.34 -21 13.68 -21 13 C-20.01 13 -19.02 13 -18 13 C-18 12.34 -18 11.68 -18 11 C-11.4 11 -4.8 11 2 11 C2 10.34 2 9.68 2 9 C1.34 9 0.68 9 0 9 C0 8.34 0 7.68 0 7 C-0.66 7 -1.32 7 -2 7 C-2 5.35 -2 3.7 -2 2 C-1.34 2 -0.68 2 0 2 C0 1.34 0 0.68 0 0 Z " fill="#040607" transform="translate(66,21)"/>
<path d="M0 0 C3.68237509 4.69286193 6.34630561 9.89773777 9.1875 15.125 C9.74630859 16.13949219 10.30511719 17.15398438 10.88085938 18.19921875 C11.40873047 19.16730469 11.93660156 20.13539062 12.48046875 21.1328125 C12.96410889 22.01855957 13.44774902 22.90430664 13.94604492 23.81689453 C15 26 15 26 15 28 C12.36 28 9.72 28 7 28 C6.67 26.68 6.34 25.36 6 24 C2.04 24 -1.92 24 -6 24 C-6.33 24.99 -6.66 25.98 -7 27 C-9.31 27 -11.62 27 -14 27 C-12.35526763 20.81663908 -9.07446913 15.60344134 -5.875 10.125 C-5.31167969 9.15046875 -4.74835938 8.1759375 -4.16796875 7.171875 C-2.78349637 4.77838038 -1.39406459 2.3879162 0 0 Z " fill="#041016" transform="translate(194,34)"/>
<path d="M0 0 C0.66 0 1.32 0 2 0 C2 2.97 2 5.94 2 9 C1.34 9 0.68 9 0 9 C0 10.98 0 12.96 0 15 C0.66 15 1.32 15 2 15 C2 18.96 2 22.92 2 27 C2.66 27 3.32 27 4 27 C4 27.66 4 28.32 4 29 C6.97 29 9.94 29 13 29 C13 28.34 13 27.68 13 27 C21.25 27 29.5 27 38 27 C38 27.66 38 28.32 38 29 C34.22785779 30.20245242 30.61735532 30.12941419 26.6796875 30.1328125 C25.9798172 30.13376923 25.2799469 30.13472595 24.55886841 30.13571167 C23.08465484 30.13639028 21.61043824 30.13455827 20.13623047 30.13037109 C17.87590881 30.12500216 15.61578439 30.13033506 13.35546875 30.13671875 C11.92187456 30.13605823 10.48828049 30.1347776 9.0546875 30.1328125 C7.74999512 30.13168457 6.44530273 30.13055664 5.10107422 30.12939453 C2 30 2 30 0 29 C0 28.34 0 27.68 0 27 C-1.65 27 -3.3 27 -5 27 C-5 26.34 -5 25.68 -5 25 C-6.65 25 -8.3 25 -10 25 C-10 24.01 -10 23.02 -10 22 C-10.66 22 -11.32 22 -12 22 C-12 17.38 -12 12.76 -12 8 C-11.34 8 -10.68 8 -10 8 C-10 7.34 -10 6.68 -10 6 C-8.35 6 -6.7 6 -5 6 C-5 5.34 -5 4.68 -5 4 C-3.35 4 -1.7 4 0 4 C0 2.68 0 1.36 0 0 Z " fill="#A4A4A3" transform="translate(46,37)"/>
<path d="M0 0 C3 1 3 1 5 2 C4.67 3.32 4.34 4.64 4 6 C0.31934195 7.17781058 -3.1644081 7 -7 7 C-7.99 7.33 -8.98 7.66 -10 8 C-11.27336185 13.94484106 -11.27336185 13.94484106 -9.625 19.5625 C-6.27304059 21.39809682 -3.86728736 21.19511097 -0.12109375 20.84765625 C2 21 2 21 3.77734375 22.49609375 C4.38255859 23.24052734 4.38255859 23.24052734 5 24 C4.67 24.99 4.34 25.98 4 27 C-0.38331321 28.4611044 -4.42847447 28.73421471 -9 28 C-12.79881388 25.93422165 -15.25587229 23.26178177 -17.4375 19.5625 C-18.50556292 14.69688001 -18.67264028 11.31940978 -16.375 6.8125 C-11.34232693 0.85275557 -7.55373521 -0.71940335 0 0 Z " fill="#030A0E" transform="translate(134,33)"/>
<path d="M0 0 C2.31 0 4.62 0 7 0 C7 9.24 7 18.48 7 28 C4.69 28 2.38 28 0 28 C0 18.76 0 9.52 0 0 Z " fill="#040E13" transform="translate(210,34)"/>
<path d="M0 0 C0.66 0 1.32 0 2 0 C2 7.59 2 15.18 2 23 C1.34 23 0.68 23 0 23 C0 22.34 0 21.68 0 21 C-1.65 21 -3.3 21 -5 21 C-5 20.01 -5 19.02 -5 18 C-5.66 18 -6.32 18 -7 18 C-7 13.38 -7 8.76 -7 4 C-6.34 4 -5.68 4 -5 4 C-5 3.34 -5 2.68 -5 2 C-3.35 2 -1.7 2 0 2 C0 1.34 0 0.68 0 0 Z " fill="#0F1B22" transform="translate(41,41)"/>
<path d="M0 0 C0.99 0 1.98 0 3 0 C3 0.66 3 1.32 3 2 C3.66 2 4.32 2 5 2 C5 2.66 5 3.32 5 4 C19.19 4 33.38 4 48 4 C48 4.66 48 5.32 48 6 C48.99 6.33 49.98 6.66 51 7 C44.21902652 7.05064156 37.43810167 7.08570883 30.65698242 7.10986328 C28.3493467 7.11993107 26.04172375 7.13358623 23.73413086 7.15087891 C20.42037809 7.17509287 17.10679374 7.18647526 13.79296875 7.1953125 C12.7585112 7.20563507 11.72405365 7.21595764 10.6582489 7.22659302 C9.6974794 7.22674408 8.7367099 7.22689514 7.74682617 7.22705078 C6.90077316 7.231492 6.05472015 7.23593323 5.18302917 7.24050903 C3 7 3 7 0 5 C-0.1875 2.375 -0.1875 2.375 0 0 Z " fill="#243B47" transform="translate(43,64)"/>
<path d="M0 0 C0.99 0 1.98 0 3 0 C3 0.66 3 1.32 3 2 C3.66 2 4.32 2 5 2 C5 2.99 5 3.98 5 5 C5.66 5 6.32 5 7 5 C7 13.25 7 21.5 7 30 C6.34 30 5.68 30 5 30 C4.67 30.66 4.34 31.32 4 32 C3.34 31.01 2.68 30.02 2 29 C1.34 29.33 0.68 29.66 0 30 C0 28.35 0 26.7 0 25 C0.66 25 1.32 25 2 25 C2 17.74 2 10.48 2 3 C1.34 3 0.68 3 0 3 C0 2.01 0 1.02 0 0 Z " fill="#BEBEBD" transform="translate(89,34)"/>
<path d="M0 0 C4.29 0 8.58 0 13 0 C13 0.66 13 1.32 13 2 C16.63 2 20.26 2 24 2 C23.67 2.99 23.34 3.98 23 5 C22.01 4.67 21.02 4.34 20 4 C20 4.99 20 5.98 20 7 C20.66 7 21.32 7 22 7 C22 14.26 22 21.52 22 29 C21.34 29 20.68 29 20 29 C20 30.65 20 32.3 20 34 C18.68 34 17.36 34 16 34 C16 33.34 16 32.68 16 32 C16.66 32 17.32 32 18 32 C18 30.35 18 28.7 18 27 C18.66 27 19.32 27 20 27 C20 21.06 20 15.12 20 9 C19.34 9 18.68 9 18 9 C18 7.35 18 5.7 18 4 C15.69 4 13.38 4 11 4 C11 3.34 11 2.68 11 2 C8.03 2 5.06 2 2 2 C1.67 2.66 1.34 3.32 1 4 C0.67 2.68 0.34 1.36 0 0 Z " fill="#040506" transform="translate(69,30)"/>
<path d="M0 0 C0.74362793 0.01047363 1.48725586 0.02094727 2.25341797 0.03173828 C3.46191406 0.04140625 3.46191406 0.04140625 4.69482422 0.05126953 C5.95746094 0.07640625 5.95746094 0.07640625 7.24560547 0.10205078 C8.51984375 0.11558594 8.51984375 0.11558594 9.81982422 0.12939453 C11.9202043 0.15299431 14.02043991 0.18886595 16.12060547 0.22705078 C16.12060547 0.55705078 16.12060547 0.88705078 16.12060547 1.22705078 C13.15060547 1.22705078 10.18060547 1.22705078 7.12060547 1.22705078 C7.12060547 2.87705078 7.12060547 4.52705078 7.12060547 6.22705078 C6.13060547 6.22705078 5.14060547 6.22705078 4.12060547 6.22705078 C4.12060547 6.88705078 4.12060547 7.54705078 4.12060547 8.22705078 C3.46060547 8.22705078 2.80060547 8.22705078 2.12060547 8.22705078 C2.12060547 9.21705078 2.12060547 10.20705078 2.12060547 11.22705078 C1.46060547 11.22705078 0.80060547 11.22705078 0.12060547 11.22705078 C0.12060547 11.88705078 0.12060547 12.54705078 0.12060547 13.22705078 C-1.19939453 12.89705078 -2.51939453 12.56705078 -3.87939453 12.22705078 C-3.93334931 10.60241236 -3.97216648 8.97726537 -4.00439453 7.35205078 C-4.02759766 6.44712891 -4.05080078 5.54220703 -4.07470703 4.60986328 C-3.82944043 1.61761069 -3.0904089 0.37335415 0 0 Z " fill="#D7D7D6" transform="translate(54.87939453125,34.77294921875)"/>
<path d="M0 0 C0.99 0.495 0.99 0.495 2 1 C2 1.66 2 2.32 2 3 C2.99 3 3.98 3 5 3 C5 3.66 5 4.32 5 5 C7.97 5 10.94 5 14 5 C14 4.34 14 3.68 14 3 C22.25 3 30.5 3 39 3 C39 3.66 39 4.32 39 5 C33.30164911 6.79767795 27.10893049 6.22467665 21.19116211 6.24023438 C18.94152434 6.24998256 16.69278464 6.28104982 14.44335938 6.3125 C13.01302624 6.31902668 11.5826866 6.32427846 10.15234375 6.328125 C8.2031604 6.34214355 8.2031604 6.34214355 6.21459961 6.35644531 C3 6 3 6 1.05297852 4.66699219 C0 3 0 3 0 0 Z " fill="#808080" transform="translate(45,61)"/>
<path d="M0 0 C0.99 0 1.98 0 3 0 C3 3.96 3 7.92 3 12 C3.66 12 4.32 12 5 12 C5 12.66 5 13.32 5 14 C6.65 14 8.3 14 10 14 C10 13.01 10 12.02 10 11 C12.97 11 15.94 11 19 11 C19 11.99 19 12.98 19 14 C16.69 14 14.38 14 12 14 C12 14.66 12 15.32 12 16 C9.03 16 6.06 16 3 16 C3 15.34 3 14.68 3 14 C2.34 14 1.68 14 1 14 C1 10.04 1 6.08 1 2 C0.34 1.67 -0.32 1.34 -1 1 C-0.67 0.67 -0.34 0.34 0 0 Z " fill="#080808" transform="translate(47,50)"/>
<path d="M0 0 C0.33 0.66 0.66 1.32 1 2 C1.99 2 2.98 2 4 2 C4.11381955 8.76594019 3.88021369 15.28837062 3 22 C2.01 22 1.02 22 0 22 C0 14.74 0 7.48 0 0 Z " fill="#D8D8D6" transform="translate(92,37)"/>
<path d="M0 0 C2.31 0 4.62 0 7 0 C7 1.98 7 3.96 7 6 C6.34 6 5.68 6 5 6 C5 6.99 5 7.98 5 9 C4.34 9 3.68 9 3 9 C2.67 9.66 2.34 10.32 2 11 C2 10.34 2 9.68 2 9 C1.34 9 0.68 9 0 9 C0 8.34 0 7.68 0 7 C-0.66 7 -1.32 7 -2 7 C-2 5.35 -2 3.7 -2 2 C-1.34 2 -0.68 2 0 2 C0 1.34 0 0.68 0 0 Z " fill="#3E464A" transform="translate(66,21)"/>
<path d="M0 0 C1.45792884 -0.05399736 2.91642712 -0.09279177 4.375 -0.125 C5.18710938 -0.14820313 5.99921875 -0.17140625 6.8359375 -0.1953125 C9 0 9 0 11 2 C13.57061311 2.64767793 13.57061311 2.64767793 16 3 C16.33 2.34 16.66 1.68 17 1 C17 1.99 17 2.98 17 4 C15.35 4 13.7 4 12 4 C11.67 4.99 11.34 5.98 11 7 C9.53984709 6.71758359 8.08190207 6.42373386 6.625 6.125 C5.81289062 5.96257813 5.00078125 5.80015625 4.1640625 5.6328125 C2 5 2 5 0 3 C0 2.01 0 1.02 0 0 Z " fill="#33A6E5" transform="translate(150,39)"/>
<path d="M0 0 C0.99 0 1.98 0 3 0 C3 0.66 3 1.32 3 2 C3.66 2 4.32 2 5 2 C5 5.3 5 8.6 5 12 C4.34 12 3.68 12 3 12 C3 12.66 3 13.32 3 14 C2.01 14 1.02 14 0 14 C0 9.38 0 4.76 0 0 Z " fill="#929291" transform="translate(98,43)"/>
<path d="M0 0 C3.3 0.66 6.6 1.32 10 2 C10 3.32 10 4.64 10 6 C7.13879744 7.43060128 5.15989415 7.38692581 2 7 C0.0625 4.625 0.0625 4.625 -1 2 C-0.67 1.34 -0.34 0.68 0 0 Z " fill="#34AAE9" transform="translate(150,49)"/>
<path d="M0 0 C0.66 0 1.32 0 2 0 C2 4.29 2 8.58 2 13 C1.34 13 0.68 13 0 13 C0 12.34 0 11.68 0 11 C-0.99 11 -1.98 11 -3 11 C-3 8.03 -3 5.06 -3 2 C-2.01 2 -1.02 2 0 2 C0 1.34 0 0.68 0 0 Z " fill="#C8C9C7" transform="translate(39,46)"/>
<path d="M0 0 C1.65 0 3.3 0 5 0 C5 0.66 5 1.32 5 2 C4.34 2 3.68 2 3 2 C3 3.65 3 5.3 3 7 C2.34 7 1.68 7 1 7 C1 7.66 1 8.32 1 9 C0.01 9 -0.98 9 -2 9 C-2 9.66 -2 10.32 -2 11 C-2.66 11 -3.32 11 -4 11 C-4 9.68 -4 8.36 -4 7 C-3.34 7 -2.68 7 -2 7 C-2 6.01 -2 5.02 -2 4 C-1.34 4 -0.68 4 0 4 C0 2.68 0 1.36 0 0 Z " fill="#ECECE6" transform="translate(84,48)"/>
<path d="M0 0 C0.99 0 1.98 0 3 0 C3 3.3 3 6.6 3 10 C1.35 10 -0.3 10 -2 10 C-2 7.69 -2 5.38 -2 3 C-1.34 3 -0.68 3 0 3 C0 2.01 0 1.02 0 0 Z " fill="#272727" transform="translate(75,45)"/>
<path d="M0 0 C0.33 0 0.66 0 1 0 C1.33 6.6 1.66 13.2 2 20 C1.34 20 0.68 20 0 20 C0 21.65 0 23.3 0 25 C-1.32 25 -2.64 25 -4 25 C-4 24.34 -4 23.68 -4 23 C-3.34 23 -2.68 23 -2 23 C-2 21.35 -2 19.7 -2 18 C-1.34 18 -0.68 18 0 18 C0 12.06 0 6.12 0 0 Z " fill="#121212" transform="translate(89,39)"/>
<path d="M0 0 C0.66 0 1.32 0 2 0 C2 2.97 2 5.94 2 9 C0.35 9 -1.3 9 -3 9 C-3 6.69 -3 4.38 -3 2 C-2.01 2 -1.02 2 0 2 C0 1.34 0 0.68 0 0 Z " fill="#1B1B1B" transform="translate(62,46)"/>
<path d="M0 0 C0.33 0 0.66 0 1 0 C1 3.63 1 7.26 1 11 C1.66 11 2.32 11 3 11 C3 13.97 3 16.94 3 20 C2.01 20.33 1.02 20.66 0 21 C0 14.07 0 7.14 0 0 Z " fill="#E2E2E0" transform="translate(44,42)"/>
<path d="M0 0 C0.66 0 1.32 0 2 0 C2 1.32 2 2.64 2 4 C1.34 4 0.68 4 0 4 C0 4.66 0 5.32 0 6 C-0.66 6 -1.32 6 -2 6 C-2 6.99 -2 7.98 -2 9 C-2.66 9 -3.32 9 -4 9 C-4 9.66 -4 10.32 -4 11 C-4.66 11 -5.32 11 -6 11 C-6 9.35 -6 7.7 -6 6 C-5.34 6 -4.68 6 -4 6 C-4 5.34 -4 4.68 -4 4 C-3.34 4 -2.68 4 -2 4 C-2 3.34 -2 2.68 -2 2 C-1.34 2 -0.68 2 0 2 C0 1.34 0 0.68 0 0 Z " fill="#F4F4EE" transform="translate(59,37)"/>
<path d="M0 0 C0.99 0 1.98 0 3 0 C3 0.66 3 1.32 3 2 C3.66 2 4.32 2 5 2 C4.67 2.99 4.34 3.98 4 5 C3.8535286 6.55266653 3.75305926 8.10995662 3.68359375 9.66796875 C3.64169922 10.56064453 3.59980469 11.45332031 3.55664062 12.37304688 C3.49766602 13.76620117 3.49766602 13.76620117 3.4375 15.1875 C3.39431641 16.12787109 3.35113281 17.06824219 3.30664062 18.03710938 C3.20061335 20.35792854 3.09854971 22.67885325 3 25 C2.67 25 2.34 25 2 25 C2 17.74 2 10.48 2 3 C1.34 3 0.68 3 0 3 C0 2.01 0 1.02 0 0 Z " fill="#828282" transform="translate(89,34)"/>
<path d="M0 0 C3 3.75 3 3.75 3 6 C2.34 6 1.68 6 1 6 C1 6.66 1 7.32 1 8 C-0.98 8 -2.96 8 -5 8 C-5 6.68 -5 5.36 -5 4 C-3.35 4 -1.7 4 0 4 C0 2.68 0 1.36 0 0 Z " fill="#D5D5D4" transform="translate(90,60)"/>
<path d="M0 0 C0.33 0.66 0.66 1.32 1 2 C1.66 2 2.32 2 3 2 C3 4.64 3 7.28 3 10 C2.34 10 1.68 10 1 10 C0.67 10.99 0.34 11.98 0 13 C0 8.71 0 4.42 0 0 Z " fill="#E1E1E0" transform="translate(99,44)"/>
<path d="M0 0 C2.97 0 5.94 0 9 0 C9 0.99 9 1.98 9 3 C6.03 3 3.06 3 0 3 C0 2.01 0 1.02 0 0 Z " fill="#363635" transform="translate(57,61)"/>
<path d="M0 0 C2.31 0 4.62 0 7 0 C7 1.98 7 3.96 7 6 C6.01 5.67 5.02 5.34 4 5 C4.33 4.01 4.66 3.02 5 2 C3.35 2 1.7 2 0 2 C0 1.34 0 0.68 0 0 Z " fill="#060809" transform="translate(66,21)"/>
<path d="M0 0 C0.33 1.32 0.66 2.64 1 4 C0.34 4 -0.32 4 -1 4 C-1 4.99 -1 5.98 -1 7 C-1.66 7 -2.32 7 -3 7 C-3 7.66 -3 8.32 -3 9 C-3.66 9 -4.32 9 -5 9 C-5 7.68 -5 6.36 -5 5 C-4.34 5 -3.68 5 -3 5 C-3 4.34 -3 3.68 -3 3 C-2.01 3 -1.02 3 0 3 C0 2.01 0 1.02 0 0 Z " fill="#F7F7F0" transform="translate(85,50)"/>
<path d="M0 0 C0.99 0 1.98 0 3 0 C3 0.66 3 1.32 3 2 C3.66 2 4.32 2 5 2 C4.34 3.32 3.68 4.64 3 6 C2.01 5.67 1.02 5.34 0 5 C0 3.35 0 1.7 0 0 Z " fill="#20313B" transform="translate(43,64)"/>
<path d="M0 0 C0.66 0 1.32 0 2 0 C1.67 0.99 1.34 1.98 1 3 C0.67 2.01 0.34 1.02 0 0 Z M-4 3 C-2.68 3 -1.36 3 0 3 C0 3.66 0 4.32 0 5 C-0.66 5 -1.32 5 -2 5 C-2 5.66 -2 6.32 -2 7 C-2.99 7 -3.98 7 -5 7 C-4.67 5.68 -4.34 4.36 -4 3 Z " fill="#191B1C" transform="translate(41,41)"/>
<path d="M0 0 C0.33 0.66 0.66 1.32 1 2 C1.66 2.33 2.32 2.66 3 3 C2.34 3 1.68 3 1 3 C1 4.32 1 5.64 1 7 C0.01 7 -0.98 7 -2 7 C-2 5.35 -2 3.7 -2 2 C-1.34 2 -0.68 2 0 2 C0 1.34 0 0.68 0 0 Z " fill="#324752" transform="translate(45,34)"/>
<path d="M0 0 C0.33 0.66 0.66 1.32 1 2 C1.66 2 2.32 2 3 2 C3 2.66 3 3.32 3 4 C3.66 4.33 4.32 4.66 5 5 C4.34 5 3.68 5 3 5 C3 5.66 3 6.32 3 7 C2.34 7 1.68 7 1 7 C1 6.01 1 5.02 1 4 C0.34 3.67 -0.32 3.34 -1 3 C-0.67 2.01 -0.34 1.02 0 0 Z " fill="#12222B" transform="translate(93,32)"/>
</svg>
